
<svg xmlns="http://www.w3.org/2000/svg" width="1100" height="520" viewBox="0 0 1100 520" role="img" aria-label="API security testing architecture">
  <rect width="1100" height="520" fill="#F7FAFC"/>
  <style>.box{fill:#fff;stroke:#263238;stroke-width:2}.title{font:700 24px Arial;fill:#101820}.text{font:16px Arial;fill:#263238}.arrow{stroke:#0B6E4F;stroke-width:4;marker-end:url(#arrow)}</style>
  <defs><marker id="arrow" markerWidth="10" markerHeight="10" refX="8" refY="3" orient="auto"><path d="M0,0 L0,6 L9,3 z" fill="#0B6E4F"/></marker></defs>
  <text x="60" y="55" class="title">API Security Testing Architecture</text>
  <rect x="60" y="100" width="210" height="110" rx="8" class="box"/><text x="92" y="150" class="title">Postman</text><text x="92" y="178" class="text">Collections + Environments</text>
  <rect x="430" y="100" width="240" height="110" rx="8" class="box"/><text x="462" y="150" class="title">Authorized API</text><text x="462" y="178" class="text">Local, staging, or safe prod</text>
  <rect x="820" y="100" width="220" height="110" rx="8" class="box"/><text x="852" y="150" class="title">Assertions</text><text x="852" y="178" class="text">Status, headers, leakage</text>
  <rect x="245" y="315" width="235" height="110" rx="8" class="box"/><text x="278" y="365" class="title">Newman</text><text x="278" y="393" class="text">CLI and report exports</text>
  <rect x="635" y="315" width="245" height="110" rx="8" class="box"/><text x="668" y="365" class="title">CI/CD</text><text x="668" y="393" class="text">Gates and artifacts</text>
  <line x1="270" y1="155" x2="430" y2="155" class="arrow"/><line x1="670" y1="155" x2="820" y2="155" class="arrow"/><line x1="930" y1="210" x2="770" y2="315" class="arrow"/><line x1="480" y1="370" x2="635" y2="370" class="arrow"/><line x1="360" y1="315" x2="185" y2="210" class="arrow"/>
</svg>
